<svg width="32" height="32" viewBox="0 0 260 260" fill="none" xmlns="http://www.w3.org/2000/svg">
    <style>
    path {
      fill: #2E3440;
    }

    @media (prefers-color-scheme: dark) {
      path {
        fill: #C0C2C9;
      }
    }
  </style>
<path d="M47 3.5C49.907 3.09225 54.5 3 54.5 3V110C54.5 110 53.5754 111.411 53 111C49.5 108.5 45.5 105 45.5 105L45.5 13.5C45.5 12.5 39.5 14 35.5 16.5C31.2268 19.1707 26 24 26 24V79.5C26 79.5 26.5657 80.4459 27 81C28.1105 82.4169 29.5 84.5 31 84.5V26C31 26 34.4622 22.6919 37 21C38.5 20 40.5 20 40.5 20V99C40.5 99 39.1125 100.306 37.5 99.5C34.5 98 31 96 31 96C31 96 24.9212 92.1644 22 89.5C19.2287 86.9724 16 83 16 82V20.5C16 19.5 25.1501 11.5058 32 8C37.5541 5.15744 40.9435 4.34952 47 3.5Z" fill="#708090"/>
<path d="M61.5 16.5C62.3585 15.8929 62.9485 15.5 64 15.5C65.0515 15.5 65.6904 15.829 66.5 16.5C67.3766 17.2265 68 18 68 18V115.5L64 123L60 115.5V18C60 18 60.4792 17.2219 61.5 16.5Z" fill="#708090"/>
<path d="M31 96C31 96 31.5 84.5 31 84.5C29.5 84.5 28.1105 82.4169 27 81C26.5657 80.4459 26 79.5 26 79.5V24C26 24 31.2268 19.1707 35.5 16.5C39.5 14 45.5 12.5 45.5 13.5C45.5 14.5 45.5 105 45.5 105C45.5 105 49.5 108.5 53 111C53.5754 111.411 54.5 110 54.5 110V3C54.5 3 49.907 3.09225 47 3.5C40.9435 4.34952 37.5541 5.15744 32 8C25.1501 11.5058 16 19.5 16 20.5C16 21 16 81 16 82C16 83 19.2287 86.9724 22 89.5C24.9212 92.1644 31 96 31 96ZM31 96V26C31 26 34.4622 22.6919 37 21C38.5 20 40.5 20 40.5 20V99C40.5 99 39.1125 100.306 37.5 99.5C34.5 98 31 96 31 96ZM64 15.5C62.9485 15.5 62.3585 15.8929 61.5 16.5C60.4792 17.2219 60 18 60 18V115.5L64 123L68 115.5V18C68 18 67.3766 17.2265 66.5 16.5C65.6904 15.829 65.0515 15.5 64 15.5Z" stroke="#708090"/>
<path d="M81 3.5C78.093 3.09225 73.5 3 73.5 3V110C73.5 110 74.4246 111.411 75 111C78.5 108.5 82.5 105 82.5 105L82.5 13.5C82.5 12.5 88.5 14 92.5 16.5C96.7732 19.1707 102 24 102 24V79.5C102 79.5 101.434 80.4459 101 81C99.8895 82.4169 98.5 84.5 97 84.5V26C97 26 93.5378 22.6919 91 21C89.5 20 87.5 20 87.5 20V99C87.5 99 88.8875 100.306 90.5 99.5C93.5 98 97 96 97 96C97 96 103.079 92.1644 106 89.5C108.771 86.9724 112 83 112 82V20.5C112 19.5 102.85 11.5058 96 8C90.4459 5.15744 87.0565 4.34952 81 3.5Z" fill="#708090"/>
<path d="M66.5 16.5C65.6415 15.8929 65.0515 15.5 64 15.5C62.9485 15.5 62.3096 15.829 61.5 16.5C60.6234 17.2265 60 18 60 18V115.5L64 123L68 115.5V18C68 18 67.5208 17.2219 66.5 16.5Z" fill="#708090"/>
<path d="M97 96C97 96 96.5 84.5 97 84.5C98.5 84.5 99.8895 82.4169 101 81C101.434 80.4459 102 79.5 102 79.5V24C102 24 96.7732 19.1707 92.5 16.5C88.5 14 82.5 12.5 82.5 13.5C82.5 14.5 82.5 105 82.5 105C82.5 105 78.5 108.5 75 111C74.4246 111.411 73.5 110 73.5 110V3C73.5 3 78.093 3.09225 81 3.5C87.0565 4.34952 90.4459 5.15744 96 8C102.85 11.5058 112 19.5 112 20.5C112 21 112 81 112 82C112 83 108.771 86.9724 106 89.5C103.079 92.1644 97 96 97 96ZM97 96V26C97 26 93.5378 22.6919 91 21C89.5 20 87.5 20 87.5 20V99C87.5 99 88.8875 100.306 90.5 99.5C93.5 98 97 96 97 96ZM64 15.5C65.0515 15.5 65.6415 15.8929 66.5 16.5C67.5208 17.2219 68 18 68 18V115.5L64 123L60 115.5V18C60 18 60.6234 17.2265 61.5 16.5C62.3096 15.829 62.9485 15.5 64 15.5Z" stroke="#708090"/>
</svg>
