<svg width="1000" height="250" viewBox="0 0 1000 250" fill="none" xmlns="http://www.w3.org/2000/svg">
<path d="M91.7969 6.83594C97.4746 6.03955 106.445 5.85938 106.445 5.85938V214.844C106.445 214.844 104.639 217.6 103.516 216.797C96.6797 211.914 88.8672 205.078 88.8672 205.078V26.3672C88.8672 24.4141 77.1484 27.3437 69.3359 32.2266C60.9898 37.4428 50.7812 46.875 50.7812 46.875V155.273C50.7812 155.273 51.8861 157.121 52.7344 158.203C54.9033 160.97 57.6172 165.039 60.5469 165.039V50.7812C60.5469 50.7812 67.309 44.3201 72.2656 41.0156C75.1953 39.0625 79.1016 39.0625 79.1016 39.0625V193.359C79.1016 193.359 76.3916 195.91 73.2422 194.336C67.3828 191.406 60.5469 187.5 60.5469 187.5C60.5469 187.5 48.6742 180.009 42.9688 174.805C37.5561 169.868 31.25 162.109 31.25 160.156V40.0391C31.25 38.0859 49.1213 22.4723 62.5 15.625C73.3479 10.0731 79.9678 8.49516 91.7969 6.83594Z" fill="white"/>
<path d="M120.117 32.2266C121.794 31.0408 122.946 30.2734 125 30.2734C127.054 30.2734 128.302 30.916 129.883 32.2266C131.595 33.6455 132.812 35.1562 132.812 35.1562V225.586L125 240.234L117.188 225.586V35.1562C117.188 35.1562 118.123 33.6365 120.117 32.2266Z" fill="white"/>
<path d="M60.5469 187.5C60.5469 187.5 61.5234 165.039 60.5469 165.039C57.6172 165.039 54.9033 160.971 52.7344 158.203C51.8861 157.121 50.7812 155.273 50.7812 155.273V46.875C50.7812 46.875 60.9898 37.4428 69.3359 32.2266C77.1484 27.3438 88.8672 24.4141 88.8672 26.3672C88.8672 28.3203 88.8672 205.078 88.8672 205.078C88.8672 205.078 96.6797 211.914 103.516 216.797C104.639 217.6 106.445 214.844 106.445 214.844V5.85938C106.445 5.85938 97.4746 6.03955 91.7969 6.83594C79.9678 8.49516 73.3479 10.0731 62.5 15.625C49.1213 22.4723 31.25 38.0859 31.25 40.0391C31.25 41.0156 31.25 158.203 31.25 160.156C31.25 162.109 37.5561 169.868 42.9688 174.805C48.6742 180.009 60.5469 187.5 60.5469 187.5ZM60.5469 187.5V50.7812C60.5469 50.7812 67.309 44.3201 72.2656 41.0156C75.1953 39.0625 79.1016 39.0625 79.1016 39.0625V193.359C79.1016 193.359 76.3916 195.91 73.2422 194.336C67.3828 191.406 60.5469 187.5 60.5469 187.5ZM125 30.2734C122.946 30.2734 121.794 31.0408 120.117 32.2266C118.123 33.6365 117.188 35.1562 117.188 35.1562V225.586L125 240.234L132.812 225.586V35.1562C132.812 35.1562 131.595 33.6455 129.883 32.2266C128.302 30.916 127.054 30.2734 125 30.2734Z" stroke="white"/>
<path d="M158.203 6.83594C152.525 6.03955 143.555 5.85938 143.555 5.85938V214.844C143.555 214.844 145.361 217.6 146.484 216.797C153.32 211.914 161.133 205.078 161.133 205.078V26.3672C161.133 24.4141 172.852 27.3437 180.664 32.2266C189.01 37.4428 199.219 46.875 199.219 46.875V155.273C199.219 155.273 198.113 157.121 197.266 158.203C195.097 160.97 192.383 165.039 189.453 165.039V50.7812C189.453 50.7812 182.691 44.3201 177.734 41.0156C174.805 39.0625 170.898 39.0625 170.898 39.0625V193.359C170.898 193.359 173.608 195.91 176.758 194.336C182.617 191.406 189.453 187.5 189.453 187.5C189.453 187.5 201.326 180.009 207.031 174.805C212.443 169.868 218.75 162.109 218.75 160.156V40.0391C218.75 38.0859 200.879 22.4723 187.5 15.625C176.652 10.0731 170.032 8.49516 158.203 6.83594Z" fill="white"/>
<path d="M129.883 32.2266C128.206 31.0408 127.054 30.2734 125 30.2734C122.946 30.2734 121.698 30.916 120.117 32.2266C118.405 33.6455 117.188 35.1562 117.188 35.1562V225.586L125 240.234L132.812 225.586V35.1562C132.812 35.1562 131.877 33.6365 129.883 32.2266Z" fill="white"/>
<path d="M189.453 187.5C189.453 187.5 188.477 165.039 189.453 165.039C192.383 165.039 195.097 160.971 197.266 158.203C198.113 157.121 199.219 155.273 199.219 155.273V46.875C199.219 46.875 189.01 37.4428 180.664 32.2266C172.852 27.3438 161.133 24.4141 161.133 26.3672C161.133 28.3203 161.133 205.078 161.133 205.078C161.133 205.078 153.32 211.914 146.484 216.797C145.361 217.6 143.555 214.844 143.555 214.844V5.85938C143.555 5.85938 152.525 6.03955 158.203 6.83594C170.032 8.49516 176.652 10.0731 187.5 15.625C200.879 22.4723 218.75 38.0859 218.75 40.0391C218.75 41.0156 218.75 158.203 218.75 160.156C218.75 162.109 212.443 169.868 207.031 174.805C201.326 180.009 189.453 187.5 189.453 187.5ZM189.453 187.5V50.7812C189.453 50.7812 182.691 44.3201 177.734 41.0156C174.805 39.0625 170.898 39.0625 170.898 39.0625V193.359C170.898 193.359 173.608 195.91 176.758 194.336C182.617 191.406 189.453 187.5 189.453 187.5ZM125 30.2734C127.054 30.2734 128.206 31.0408 129.883 32.2266C131.877 33.6365 132.812 35.1562 132.812 35.1562V225.586L125 240.234L117.188 225.586V35.1562C117.188 35.1562 118.405 33.6455 120.117 32.2266C121.698 30.916 122.946 30.2734 125 30.2734Z" stroke="white"/>
</svg>
