<svg width="649" height="128" viewBox="0 0 649 128" fill="none" xmlns="http://www.w3.org/2000/svg">
<path d="M47 3.5C49.907 3.09225 54.5 3 54.5 3V110C54.5 110 53.5754 111.411 53 111C49.5 108.5 45.5 105 45.5 105L45.5 13.5C45.5 12.5 39.5 14 35.5 16.5C31.2268 19.1707 26 24 26 24V79.5C26 79.5 26.5657 80.4459 27 81C28.1105 82.4169 29.5 84.5 31 84.5V26C31 26 34.4622 22.6919 37 21C38.5 20 40.5 20 40.5 20V99C40.5 99 39.1125 100.306 37.5 99.5C34.5 98 31 96 31 96C31 96 24.9212 92.1644 22 89.5C19.2287 86.9724 16 83 16 82V20.5C16 19.5 25.1501 11.5058 32 8C37.5541 5.15744 40.9435 4.34952 47 3.5Z" fill="white"/>
<path d="M61.5 16.5C62.3585 15.8929 62.9485 15.5 64 15.5C65.0515 15.5 65.6904 15.829 66.5 16.5C67.3766 17.2265 68 18 68 18V115.5L64 123L60 115.5V18C60 18 60.4792 17.2219 61.5 16.5Z" fill="white"/>
<path d="M31 96C31 96 31.5 84.5 31 84.5C29.5 84.5 28.1105 82.4169 27 81C26.5657 80.4459 26 79.5 26 79.5V24C26 24 31.2268 19.1707 35.5 16.5C39.5 14 45.5 12.5 45.5 13.5C45.5 14.5 45.5 105 45.5 105C45.5 105 49.5 108.5 53 111C53.5754 111.411 54.5 110 54.5 110V3C54.5 3 49.907 3.09225 47 3.5C40.9435 4.34952 37.5541 5.15744 32 8C25.1501 11.5058 16 19.5 16 20.5C16 21 16 81 16 82C16 83 19.2287 86.9724 22 89.5C24.9212 92.1644 31 96 31 96ZM31 96V26C31 26 34.4622 22.6919 37 21C38.5 20 40.5 20 40.5 20V99C40.5 99 39.1125 100.306 37.5 99.5C34.5 98 31 96 31 96ZM64 15.5C62.9485 15.5 62.3585 15.8929 61.5 16.5C60.4792 17.2219 60 18 60 18V115.5L64 123L68 115.5V18C68 18 67.3766 17.2265 66.5 16.5C65.6904 15.829 65.0515 15.5 64 15.5Z" stroke="white"/>
<path d="M81 3.5C78.093 3.09225 73.5 3 73.5 3V110C73.5 110 74.4246 111.411 75 111C78.5 108.5 82.5 105 82.5 105L82.5 13.5C82.5 12.5 88.5 14 92.5 16.5C96.7732 19.1707 102 24 102 24V79.5C102 79.5 101.434 80.4459 101 81C99.8895 82.4169 98.5 84.5 97 84.5V26C97 26 93.5378 22.6919 91 21C89.5 20 87.5 20 87.5 20V99C87.5 99 88.8875 100.306 90.5 99.5C93.5 98 97 96 97 96C97 96 103.079 92.1644 106 89.5C108.771 86.9724 112 83 112 82V20.5C112 19.5 102.85 11.5058 96 8C90.4459 5.15744 87.0565 4.34952 81 3.5Z" fill="white"/>
<path d="M66.5 16.5C65.6415 15.8929 65.0515 15.5 64 15.5C62.9485 15.5 62.3096 15.829 61.5 16.5C60.6234 17.2265 60 18 60 18V115.5L64 123L68 115.5V18C68 18 67.5208 17.2219 66.5 16.5Z" fill="white"/>
<path d="M97 96C97 96 96.5 84.5 97 84.5C98.5 84.5 99.8895 82.4169 101 81C101.434 80.4459 102 79.5 102 79.5V24C102 24 96.7732 19.1707 92.5 16.5C88.5 14 82.5 12.5 82.5 13.5C82.5 14.5 82.5 105 82.5 105C82.5 105 78.5 108.5 75 111C74.4246 111.411 73.5 110 73.5 110V3C73.5 3 78.093 3.09225 81 3.5C87.0565 4.34952 90.4459 5.15744 96 8C102.85 11.5058 112 19.5 112 20.5C112 21 112 81 112 82C112 83 108.771 86.9724 106 89.5C103.079 92.1644 97 96 97 96ZM97 96V26C97 26 93.5378 22.6919 91 21C89.5 20 87.5 20 87.5 20V99C87.5 99 88.8875 100.306 90.5 99.5C93.5 98 97 96 97 96ZM64 15.5C65.0515 15.5 65.6415 15.8929 66.5 16.5C67.5208 17.2219 68 18 68 18V115.5L64 123L60 115.5V18C60 18 60.6234 17.2265 61.5 16.5C62.3096 15.829 62.9485 15.5 64 15.5Z" stroke="white"/>
<path d="M176.351 82.735C172.823 82.735 169.801 81.9673 167.286 80.432C164.77 78.8803 162.835 76.7243 161.479 73.964C160.14 71.2037 159.47 68.0023 159.47 64.36C159.47 60.7177 160.14 57.5163 161.479 54.756C162.835 51.9957 164.77 49.8478 167.286 48.3125C169.801 46.7608 172.823 45.985 176.351 45.985C179.879 45.985 182.9 46.7608 185.416 48.3125C187.947 49.8478 189.883 51.9957 191.222 54.756C192.578 57.5163 193.256 60.7177 193.256 64.36C193.256 68.0023 192.578 71.2037 191.222 73.964C189.883 76.7243 187.947 78.8803 185.416 80.432C182.9 81.9673 179.879 82.735 176.351 82.735ZM176.351 77.1735C178.719 77.1898 180.687 76.6672 182.255 75.6055C183.839 74.5438 185.024 73.0493 185.808 71.122C186.608 69.1947 187.008 66.9407 187.008 64.36C187.008 61.7793 186.608 59.5417 185.808 57.647C185.024 55.736 183.839 54.2497 182.255 53.188C180.687 52.1263 178.719 51.5792 176.351 51.5465C173.982 51.5302 172.014 52.0528 170.446 53.1145C168.878 54.1762 167.694 55.6707 166.894 57.598C166.11 59.5253 165.718 61.7793 165.718 64.36C165.718 66.9407 166.11 69.1865 166.894 71.0975C167.678 72.9922 168.854 74.4703 170.422 75.532C172.006 76.5937 173.982 77.1408 176.351 77.1735ZM198.132 82V46.72H203.449L215.65 71.71L227.851 46.72H233.167V82H227.655V59.3865L216.826 82H214.474L203.669 59.3865V82H198.132ZM237.6 82L248.723 46.72H257.372L268.495 82H262.419L252.325 50.346H253.648L243.676 82H237.6ZM243.799 74.356V68.8435H262.321V74.356H243.799ZM272.924 82V46.72H284.17C284.464 46.72 285.043 46.7282 285.909 46.7445C286.791 46.7608 287.64 46.818 288.457 46.916C291.25 47.2753 293.61 48.2717 295.538 49.905C297.481 51.522 298.951 53.5882 299.948 56.1035C300.944 58.6188 301.442 61.371 301.442 64.36C301.442 67.349 300.944 70.1012 299.948 72.6165C298.951 75.1318 297.481 77.2062 295.538 78.8395C293.61 80.4565 291.25 81.4447 288.457 81.804C287.657 81.902 286.816 81.9592 285.934 81.9755C285.052 81.9918 284.464 82 284.17 82H272.924ZM278.927 76.4385H284.17C284.66 76.4385 285.28 76.4222 286.032 76.3895C286.799 76.3568 287.477 76.2833 288.065 76.169C289.731 75.8587 291.087 75.1155 292.132 73.9395C293.177 72.7635 293.945 71.3343 294.435 69.652C294.941 67.9697 295.195 66.2057 295.195 64.36C295.195 62.449 294.941 60.6523 294.435 58.97C293.929 57.2877 293.145 55.8748 292.083 54.7315C291.038 53.5882 289.698 52.8613 288.065 52.551C287.477 52.4203 286.799 52.3468 286.032 52.3305C285.28 52.2978 284.66 52.2815 284.17 52.2815H278.927V76.4385ZM321.444 82.735C318.634 82.735 316.16 82.1633 314.02 81.02C311.897 79.8767 310.231 78.2678 309.022 76.1935C307.83 74.1192 307.234 71.6855 307.234 68.8925V46.769L313.212 46.72V68.7455C313.212 70.0685 313.432 71.2527 313.873 72.298C314.331 73.3433 314.943 74.2335 315.711 74.9685C316.478 75.6872 317.36 76.2343 318.357 76.61C319.353 76.9857 320.382 77.1735 321.444 77.1735C322.538 77.1735 323.575 76.9857 324.555 76.61C325.552 76.218 326.434 75.6627 327.201 74.944C327.969 74.209 328.573 73.3188 329.014 72.2735C329.455 71.2282 329.676 70.0522 329.676 68.7455V46.72H335.654V68.8925C335.654 71.6855 335.049 74.1192 333.841 76.1935C332.648 78.2678 330.982 79.8767 328.843 81.02C326.719 82.1633 324.253 82.735 321.444 82.735ZM342.5 82V46.72H353.746C354.04 46.72 354.62 46.7282 355.485 46.7445C356.367 46.7608 357.217 46.818 358.033 46.916C360.826 47.2753 363.186 48.2717 365.114 49.905C367.057 51.522 368.527 53.5882 369.524 56.1035C370.52 58.6188 371.018 61.371 371.018 64.36C371.018 67.349 370.52 70.1012 369.524 72.6165C368.527 75.1318 367.057 77.2062 365.114 78.8395C363.186 80.4565 360.826 81.4447 358.033 81.804C357.233 81.902 356.392 81.9592 355.51 81.9755C354.628 81.9918 354.04 82 353.746 82H342.5ZM348.503 76.4385H353.746C354.236 76.4385 354.856 76.4222 355.608 76.3895C356.375 76.3568 357.053 76.2833 357.641 76.169C359.307 75.8587 360.663 75.1155 361.708 73.9395C362.754 72.7635 363.521 71.3343 364.011 69.652C364.518 67.9697 364.771 66.2057 364.771 64.36C364.771 62.449 364.518 60.6523 364.011 58.97C363.505 57.2877 362.721 55.8748 361.659 54.7315C360.614 53.5882 359.275 52.8613 357.641 52.551C357.053 52.4203 356.375 52.3468 355.608 52.3305C354.856 52.2978 354.236 52.2815 353.746 52.2815H348.503V76.4385ZM391.02 82.735C388.211 82.735 385.736 82.1633 383.596 81.02C381.473 79.8767 379.807 78.2678 378.598 76.1935C377.406 74.1192 376.81 71.6855 376.81 68.8925V46.769L382.788 46.72V68.7455C382.788 70.0685 383.008 71.2527 383.449 72.298C383.907 73.3433 384.519 74.2335 385.287 74.9685C386.055 75.6872 386.937 76.2343 387.933 76.61C388.929 76.9857 389.958 77.1735 391.02 77.1735C392.114 77.1735 393.151 76.9857 394.131 76.61C395.128 76.218 396.01 75.6627 396.777 74.944C397.545 74.209 398.149 73.3188 398.59 72.2735C399.031 71.2282 399.252 70.0522 399.252 68.7455V46.72H405.23V68.8925C405.23 71.6855 404.626 74.1192 403.417 76.1935C402.225 78.2678 400.559 79.8767 398.419 81.02C396.296 82.1633 393.829 82.735 391.02 82.735ZM421.886 82V46.72H427.864L444.23 71.5875V46.72H450.208V82H444.23L427.864 57.1325V82H421.886ZM458.037 82V75.9485H464.088V82H458.037ZM479.877 82L468.754 46.72H474.83L484.14 76.267L493.572 46.72H499.648L488.525 82H479.877ZM501.39 82V75.9485H507.442V82H501.39Z" fill="white"/>
</svg>
